<svg width="33" height="33" viewBox="0 0 33 33" fill="none" xmlns="http://www.w3.org/2000/svg">
<path d="M1.41589 23.1362C1.34044 22.9346 1.60251 22.7773 1.75017 22.937C3.56194 24.9004 9.31936 30.2989 16.9372 29.1128C20.4253 28.5701 23.6715 26.8945 25.6561 23.974C26.7255 22.4008 27.5052 20.6163 27.3081 18.6989C27.1863 17.5168 26.8237 16.3572 26.2419 15.3138C25.1855 13.4173 23.2634 11.7103 21.1758 10.9668C21.1758 10.9668 18.5664 10.0379 17.6853 11.8296C16.8042 13.6213 18.431 14.7816 19.0744 14.9808C19.6139 15.1477 20.8691 15.0114 21.5393 14.0438C21.6642 13.864 21.9523 13.9374 21.9685 14.1543C22.0577 15.309 21.8882 17.52 19.6496 19.0278C16.4983 21.1509 13.6861 19.6584 12.9064 19.1939C10.2605 17.6175 9.36399 13.8245 11.3745 11.4353C11.4468 11.349 11.3559 11.2249 11.2496 11.2644C10.3855 11.5853 8.32139 12.5594 6.94207 14.9107C6.83173 15.0985 6.54045 15.0364 6.51611 14.8203C6.36357 13.4504 6.50719 10.1758 10.5332 7.2512C15.7794 3.44042 22.8853 6.15054 22.9015 6.15619C22.917 6.16102 28.6322 7.88902 31.4411 13.9519C34.2533 20.0229 29.6448 26.2261 27.5782 28.1831C25.5109 30.1401 21.1742 33.7896 14.0918 32.7937C7.57575 31.8793 2.75058 26.7196 1.41589 23.1362Z" fill="white"/>
<path d="M25.8078 17.7715C25.9125 17.6111 26.1632 17.6659 26.1875 17.8546C26.4058 19.5414 26.4447 24.665 19.4816 27.0566C13.2488 29.1974 4.7449 26.4454 1.82156 20.4058C0.995595 18.6996 0.601274 16.8071 0.572876 14.9243C0.529874 12.0207 1.32744 9.51941 3.07268 7.19553C4.89337 4.77247 7.35991 2.86708 10.1291 1.57935C15.252 -0.80259 22.1372 0.233561 26.474 3.74035C28.3247 5.23692 29.9206 7.26245 30.8699 9.41862C30.9608 9.62504 30.6971 9.80405 30.534 9.646C28.7652 7.93172 23.8484 3.76857 17.8208 3.76857C10.2305 3.76857 6.74003 9.27509 6.74003 9.27509C6.74003 9.27509 2.60615 15.2461 8.29866 20.1889C13.8151 24.9778 22.7011 22.5435 25.8078 17.7715Z" fill="white"/>
</svg>
