<svg width="148" height="30" viewBox="0 0 148 30" fill="none" xmlns="http://www.w3.org/2000/svg">
<path fill-rule="evenodd" clip-rule="evenodd" d="M7.53154 10.5925V2.44131C7.20856 2.23106 6.28162 1.79115 5.15766 1.71352C3.75272 1.61648 3.12291 2.19871 3.36515 3.21761C3.55893 4.03273 4.7055 4.17182 5.25456 4.13947C5.06077 4.68935 4.36314 5.74058 3.12291 5.54651C1.57263 5.30392 0.942824 4.38206 0.894378 3.41169C0.845932 2.44132 1.08816 0.209444 3.9465 0.0153691C6.47033 -0.155994 8.46537 1.1479 9.49807 1.82284C9.63488 1.91225 9.75495 1.99072 9.85696 2.05316C10.729 2.58687 12.1824 2.78094 12.4731 2.05316C12.7056 1.47093 12.1824 1.09896 11.8917 0.985745H12.6184C13.1513 0.985745 13.7811 1.17982 13.7811 2.05316C13.7811 2.9265 13.2967 3.55724 12.3277 3.79984C11.5526 3.99391 10.8743 3.8807 10.6321 3.79984V10.8836C11.2458 10.9644 12.7347 11.2523 13.7811 11.7569C14.8276 12.2615 16.0581 13.1963 16.5426 13.6006C16.591 10.6248 16.6588 4.56643 16.5426 4.13947C16.4263 3.7125 15.396 3.34699 14.8954 3.21761V2.58687C15.2668 2.61921 16.3294 2.70331 17.6084 2.78094C18.8874 2.85857 20.5959 2.58687 21.2903 2.44131V3.21761C21.1773 3.12057 20.8155 3.02354 20.2729 3.41169C19.7303 3.79984 19.6593 4.54379 19.6916 4.86725V14.4255L20.709 15.2503L19.6916 16.2207L19.5462 19.617C19.4978 20.7491 19.459 23.12 19.6916 23.547C19.9241 23.974 20.7897 24.4042 21.1934 24.5659V24.954C20.8382 24.954 19.8079 24.9055 18.5289 24.7115C17.2499 24.5174 15.6059 24.7923 14.9438 24.954V24.5659C15.2022 24.4203 15.8159 24.0516 16.2034 23.7411C16.591 23.4306 16.591 22.4796 16.5426 22.0429V15.4444C16.3488 15.2503 15.6705 14.6486 14.5078 13.7947C13.3451 12.9408 11.4395 12.4038 10.6321 12.2421L10.4383 17.6277C10.729 17.9673 11.3297 18.9377 11.4073 20.1022C11.4848 21.2666 10.7936 22.0753 10.4383 22.334C10.3737 22.4796 10.2833 22.9648 10.4383 23.7411C10.5934 24.5174 11.6333 25.4231 12.1339 25.7789C11.375 25.9568 9.62442 26.429 8.69425 26.8948C7.76408 27.3606 5.94895 29.159 5.15766 30C5.54523 29.4339 6.41727 28.1078 6.80484 27.3315C7.19241 26.5552 7.45079 24.8732 7.53154 24.1292C7.11167 24.2263 5.98125 24.3621 4.81854 24.1292C3.36515 23.8381 1.81486 22.5766 0.991269 21.6062C0.16768 20.6359 -0.607462 17.6277 0.700591 14.4255C1.74703 11.8637 5.69057 10.8027 7.53154 10.5925ZM7.43466 16.0265V12.0965C6.77257 12.1935 5.26427 12.5041 4.52788 12.9698C3.6074 13.5521 2.49314 14.5224 2.20246 17.2395C1.91178 19.9566 3.80119 21.7032 5.6906 22.2855C7.58001 22.8677 8.69428 21.4606 8.74272 20.1991C8.79117 18.9377 7.7738 17.7732 6.4173 18.2584C5.3321 18.6465 5.60986 20.0374 5.88439 20.6843C5.77134 20.6843 5.38054 20.5873 4.72167 20.1991C3.89808 19.714 3.65584 18.8891 4.33409 17.5306C4.87669 16.4438 6.62722 16.075 7.43466 16.0265Z" fill="white"/>
<path d="M120.799 10.1558C120.528 9.8065 120.686 8.84583 120.799 8.40916C119.685 8.79731 118.668 9.76768 119.104 11.1262C119.54 12.4847 121.041 13.164 122.446 13.0184C123.851 12.8729 125.256 11.6599 125.499 9.86472C125.741 8.06952 124.966 5.83766 122.35 5.44951C119.733 5.06136 117.602 5.6921 115.373 7.63285C113.59 9.18546 112.725 12.7112 112.515 14.2799L111.498 15.3473L112.515 16.1722C112.596 16.9808 112.893 18.9377 113.435 20.2963C114.114 21.9944 115.567 23.4015 117.553 24.5659C119.54 25.7304 121.962 25.0996 123.609 24.1293C125.256 23.1589 125.499 20.83 124.53 19.6655C123.754 18.734 122.366 18.7598 121.768 18.8892C121.946 18.9863 122.388 19.3453 122.737 20.0052C123.173 20.83 122.882 22.5767 121.865 23.7411C120.848 24.9056 118.764 23.7411 117.699 22.7707C116.846 21.9944 116.278 19.4068 116.1 18.21C116.019 17.7248 115.906 16.6379 116.1 16.1722C116.294 15.7064 116.794 15.4282 117.02 15.3473L116.003 14.377C115.955 14.1182 115.993 13.0864 116.536 11.0292C117.214 8.45767 118.91 6.66248 120.266 6.32285C121.623 5.98322 122.737 6.56544 123.367 7.4873C123.997 8.40916 123.997 9.62213 123.222 10.3014C122.446 10.9807 121.138 10.5925 120.799 10.1558Z" fill="white"/>
<path fill-rule="evenodd" clip-rule="evenodd" d="M100.597 24.8085L100.742 24.5174C100.306 24.3071 99.4635 23.7314 99.5797 23.1103C99.696 22.4893 100.403 19.6817 100.742 18.3555L105.684 18.4525C106.152 19.9243 107.089 22.9648 107.089 23.3529C107.089 23.7411 106.055 24.2909 105.539 24.5174L105.684 25.0996C106.007 25.0026 106.944 24.8085 108.106 24.8085H112.03V24.5174C111.643 24.3395 110.781 23.8575 110.432 23.3529C110.083 22.8483 109.382 20.3286 109.075 19.1318C108.833 18.4849 108.368 17.0261 108.445 16.3662C108.523 15.7063 108.898 15.3797 109.075 15.2988C108.865 15.2341 108.339 14.9883 107.913 14.5225C107.511 14.0834 107.081 12.4303 106.79 11.311C106.696 10.946 106.616 10.6378 106.556 10.4469C106.528 10.3582 106.494 10.2531 106.456 10.1354L106.454 10.1281C106.158 9.21377 105.621 7.55353 105.878 6.95356C106.11 6.41015 106.879 6.11257 107.234 6.0317V5.64355C106.54 5.70824 104.831 5.83762 103.552 5.83762C102.273 5.83762 101.114 5.57886 100.694 5.44947V6.24029C100.692 6.25173 100.692 6.26326 100.694 6.27429V6.24029C100.71 6.15113 100.857 6.06788 101.372 6.27429C101.954 6.50718 102.39 7.01825 102.535 7.24467C101.921 9.50888 100.646 14.1343 100.452 14.5225C100.258 14.9106 99.4667 15.0724 99.0953 15.1047L99.9673 16.3662C99.4505 18.4849 98.3201 22.8968 97.9326 23.5955C97.545 24.2942 96.6084 24.3395 96.1885 24.2748V24.8085H100.597ZM103.213 9.86474L105.345 16.9H101.227L103.213 9.86474Z" fill="white"/>
<path fill-rule="evenodd" clip-rule="evenodd" d="M140.468 2.44131V10.5925C142.309 10.8027 146.253 11.8637 147.299 14.4255C148.607 17.6277 147.832 20.6359 147.009 21.6062C146.185 22.5766 144.635 23.8381 143.181 24.1292C142.019 24.3621 140.888 24.2263 140.468 24.1292C140.549 24.8732 140.808 26.5552 141.195 27.3315C141.583 28.1078 142.455 29.4339 142.842 30C142.051 29.159 140.236 27.3606 139.306 26.8948C138.376 26.429 136.625 25.9568 135.866 25.7789C136.367 25.4231 137.407 24.5174 137.562 23.7411C137.717 22.9648 137.626 22.4796 137.562 22.334C137.206 22.0753 136.515 21.2666 136.593 20.1022C136.67 18.9377 137.271 17.9673 137.562 17.6277L137.368 12.2421C136.56 12.4038 134.655 12.9408 133.492 13.7947C132.329 14.6486 131.651 15.2503 131.457 15.4444V22.0429C131.409 22.4796 131.409 23.4306 131.797 23.7411C132.184 24.0516 132.798 24.4203 133.056 24.5659V24.954C132.394 24.7923 130.75 24.5174 129.471 24.7115C128.192 24.9055 127.162 24.954 126.807 24.954V24.5659C127.21 24.4042 128.076 23.974 128.308 23.547C128.541 23.12 128.502 20.7491 128.454 19.617L128.308 16.2207L127.291 15.2503L128.308 14.4255V4.86725C128.341 4.54379 128.27 3.79984 127.727 3.41169C127.184 3.02354 126.823 3.12057 126.71 3.21761V2.44131C127.404 2.58687 129.113 2.85857 130.392 2.78094C131.671 2.70331 132.733 2.61921 133.105 2.58687V3.21761C132.604 3.34699 131.574 3.7125 131.457 4.13947C131.341 4.56643 131.409 10.6248 131.457 13.6006C131.942 13.1963 133.172 12.2615 134.219 11.7569C135.265 11.2523 136.754 10.9644 137.368 10.8836V3.79984C137.126 3.8807 136.447 3.99391 135.672 3.79984C134.703 3.55724 134.219 2.9265 134.219 2.05316C134.219 1.17982 134.849 0.985745 135.382 0.985745H136.108C135.818 1.09896 135.294 1.47093 135.527 2.05316C135.818 2.78094 137.271 2.58687 138.143 2.05316C138.245 1.99073 138.365 1.91236 138.502 1.82295C139.534 1.14802 141.53 -0.155994 144.053 0.0153691C146.912 0.209444 147.154 2.44132 147.106 3.41169C147.057 4.38206 146.427 5.30392 144.877 5.54651C143.637 5.74058 142.939 4.68935 142.745 4.13947C143.294 4.17182 144.441 4.03273 144.635 3.21761C144.877 2.19871 144.247 1.61648 142.842 1.71352C141.718 1.79115 140.791 2.23106 140.468 2.44131ZM140.565 12.0965V16.0265C141.373 16.075 143.123 16.4438 143.666 17.5306C144.344 18.8891 144.102 19.714 143.278 20.1991C142.619 20.5873 142.229 20.6843 142.116 20.6843C142.39 20.0374 142.668 18.6465 141.583 18.2584C140.226 17.7732 139.209 18.9377 139.257 20.1991C139.306 21.4606 140.42 22.8677 142.309 22.2855C144.199 21.7032 146.088 19.9566 145.798 17.2395C145.507 14.5224 144.393 13.5521 143.472 12.9698C142.736 12.5041 141.227 12.1935 140.565 12.0965Z" fill="white"/>
<path d="M34.8069 11.4173C34.6131 10.5925 34.2546 8.70994 34.3708 7.77838C34.4871 6.84682 34.5808 5.74059 34.6131 5.30392C34.1125 5.4333 32.6171 5.70177 30.6405 5.74059C30.1745 5.74974 29.7084 5.76062 29.2522 5.77127C27.2895 5.81708 25.507 5.85869 24.6816 5.74059C23.8677 5.62414 23.1151 5.40096 22.8406 5.30392V5.93466C23.1959 5.96701 23.9839 6.20637 24.294 6.90504C24.5679 7.52223 24.5272 9.66601 24.4969 11.2643C24.4844 11.9274 24.4736 12.4971 24.4878 12.8243C24.5265 13.7171 24.5039 14.2314 24.4878 14.3769L23.6157 15.2988L24.4878 16.3177C24.5201 17.6762 24.5944 20.6262 24.6331 21.5577C24.6816 22.7222 24.5847 23.7411 24.1002 24.0322C23.7126 24.2651 23.1636 24.5174 22.9375 24.6144V24.9055C23.9872 24.8085 26.4547 24.6144 27.9275 24.6144C29.7684 24.6144 33.1597 24.6629 34.1286 24.9055C34.9038 25.0996 35.259 25.1481 35.3398 25.1481H35.4851C35.1944 24.485 34.5646 22.8386 34.3708 21.5577C34.1771 20.2768 34.2901 18.9862 34.3708 18.501C34.6938 18.6142 35.4076 18.6951 35.6789 18.1129C36.018 17.3851 35.4367 16.5603 34.5162 16.5603C33.5957 16.5603 33.1112 17.2395 33.0628 17.9673C33.0548 18.0871 33.0469 18.262 33.0372 18.4747C32.9879 19.5552 32.8942 21.6124 32.5299 22.3825C32.0939 23.3044 31.1249 23.8381 30.156 23.8381C29.3809 23.8381 28.2181 23.5147 27.7337 23.3529V15.6869C28.3958 15.6708 29.8847 15.6675 30.5436 15.784C31.3672 15.9295 31.7063 16.9484 31.7547 17.5307C31.7935 17.9964 31.8678 18.2099 31.9001 18.2584L32.433 18.2099C32.3199 17.5307 32.1035 15.9489 32.1423 15.0562C32.1811 14.1635 32.3522 13.1963 32.433 12.8243L31.9001 12.6788C31.9162 13.1478 31.7257 14.1149 30.8343 14.2314C29.9428 14.3478 28.3958 14.3769 27.7337 14.3769V7.39023C27.9921 7.16381 28.7704 6.73037 29.8169 6.808C31.1249 6.90504 32.3845 7.34171 33.0628 8.94283C33.6054 10.2237 33.8379 11.2556 33.8864 11.6114L34.8069 11.4173Z" fill="white"/>
<path d="M93.4754 7.77838C93.3592 8.70994 93.7177 10.5925 93.9115 11.4173L92.991 11.6114C92.9425 11.2556 92.71 10.2237 92.1674 8.94283C91.4891 7.34171 90.2295 6.90504 88.9215 6.808C87.875 6.73037 87.0967 7.16381 86.8383 7.39023V14.3769C87.5004 14.3769 89.0474 14.3478 89.9389 14.2314C90.8303 14.1149 91.0208 13.1478 91.0047 12.6788L91.5376 12.8243C91.4568 13.1963 91.2857 14.1635 91.2469 15.0562C91.2082 15.9489 91.4246 17.5307 91.5376 18.2099L91.0047 18.2584C90.9724 18.2099 90.8981 17.9964 90.8593 17.5307C90.8109 16.9484 90.4718 15.9295 89.6482 15.784C88.9893 15.6675 87.5004 15.6708 86.8383 15.6869V23.3529C87.3228 23.5147 88.4855 23.8381 89.2606 23.8381C90.2295 23.8381 91.1985 23.3044 91.6345 22.3825C91.9988 21.6124 92.0925 19.5552 92.1418 18.4748C92.1515 18.262 92.1594 18.0871 92.1674 17.9673C92.2158 17.2395 92.7003 16.5603 93.6208 16.5603C94.5413 16.5603 95.1226 17.3851 94.7835 18.1129C94.5122 18.6951 93.7984 18.6142 93.4755 18.501C93.3947 18.9862 93.2817 20.2768 93.4755 21.5577C93.6692 22.8386 94.299 24.485 94.5897 25.1481H94.4444C94.3636 25.1481 94.0083 25.0996 93.2332 24.9055C92.2643 24.6629 88.873 24.6144 87.0321 24.6144C85.5593 24.6144 83.0918 24.8085 82.0421 24.9055V24.6144C82.2682 24.5174 82.8172 24.2651 83.2048 24.0322C83.6893 23.7411 83.7862 22.7222 83.7377 21.5577C83.699 20.6262 83.6247 17.6762 83.5924 16.3177L82.7203 15.2988L83.5924 14.3769C83.6085 14.2314 83.6311 13.7171 83.5924 12.8243C83.5782 12.4971 83.589 11.9279 83.6015 11.2647C83.6318 9.6664 83.6725 7.52224 83.3986 6.90504C83.0885 6.20637 82.3005 5.96701 81.9452 5.93466V5.30392C82.2197 5.40096 82.9723 5.62414 83.7862 5.74059C84.6116 5.85868 86.3938 5.81709 88.3565 5.77127C88.8127 5.76062 89.2791 5.74974 89.7451 5.74059C91.7217 5.70177 93.2171 5.4333 93.7177 5.30392C93.6854 5.74059 93.5917 6.84682 93.4754 7.77838Z" fill="white"/>
<path d="M37.1807 6.12873C37.5683 6.24194 38.3822 6.61392 38.5372 7.19615C38.6923 7.77837 38.6987 12.0965 38.6826 14.1829L37.5683 15.2988C37.8428 15.509 38.421 15.9586 38.5372 16.0751C38.6535 16.1915 38.7149 17.2234 38.731 17.7247V22.5281C38.731 23.2074 38.3434 23.8866 37.9074 24.1777C37.5586 24.4106 37.2453 24.5659 37.1323 24.6144V25.0026C38.0851 24.8732 40.3685 24.6144 41.88 24.6144C42.3108 24.6144 42.729 24.6094 43.1363 24.6044C44.5155 24.5878 45.7701 24.5727 46.9669 24.76C48.2071 24.954 48.9694 25.1319 49.1954 25.1966L49.4861 25.0026C49.147 24.3233 48.4203 22.5863 48.2265 21.0725C48.0327 19.5587 48.0166 18.6628 48.0327 18.404C48.3719 18.5981 49.1567 18.8601 49.583 18.3555C50.1159 17.7247 49.7284 16.8029 48.711 16.6088C47.6936 16.4147 47.1607 16.7544 46.9669 18.0158C46.8932 18.4957 46.8615 19.1019 46.8293 19.7196C46.7767 20.7259 46.7226 21.7628 46.4824 22.334C46.0949 23.2559 44.9806 24.1292 43.7694 23.8866C42.8005 23.6925 41.9769 23.3206 41.6863 23.1588V16.0751L42.7521 15.1532L41.6863 14.3284L41.8316 7.3417C41.8639 7.13145 42.0641 6.65273 42.6067 6.41984C43.1493 6.18695 43.3819 6.03169 43.4303 5.98317V5.59502C42.6067 5.75675 40.5914 6.02199 39.1186 5.7891C37.6458 5.55621 37.1161 5.56268 37.0354 5.59502L37.1807 6.12873Z" fill="white"/>
<path d="M52.5383 7.19615C52.3832 6.61392 51.5693 6.24194 51.1818 6.12873L51.0364 5.59502C51.1172 5.56268 51.6469 5.55621 53.1196 5.7891C54.5924 6.02199 56.6078 5.75675 57.4314 5.59502V5.98317C57.3829 6.03169 57.1504 6.18695 56.6078 6.41984C56.0652 6.65273 55.8649 7.13145 55.8326 7.3417L55.6873 14.3284L56.7531 15.1532L55.6873 16.0751V23.1588C55.978 23.3206 56.8016 23.6925 57.7705 23.8866C58.9816 24.1292 60.0959 23.2559 60.4835 22.334C60.7236 21.7628 60.7778 20.7259 60.8303 19.7196C60.8626 19.1019 60.8942 18.4957 60.9679 18.0158C61.1617 16.7544 61.6946 16.4147 62.712 16.6088C63.7294 16.8029 64.117 17.7247 63.5841 18.3555C63.1577 18.8601 62.3729 18.5981 62.0338 18.404C62.0176 18.6628 62.0338 19.5587 62.2276 21.0725C62.4213 22.5863 63.148 24.3233 63.4872 25.0026L63.1965 25.1966C62.9704 25.1319 62.2082 24.954 60.9679 24.76C59.7711 24.5727 58.5166 24.5878 57.1374 24.6044C56.7301 24.6094 56.3119 24.6144 55.8811 24.6144C54.3695 24.6144 52.0861 24.8732 51.1333 25.0026V24.6144C51.2464 24.5659 51.5597 24.4106 51.9085 24.1777C52.3445 23.8866 52.7321 23.2074 52.7321 22.5281V17.7247C52.7159 17.2234 52.6545 16.1915 52.5383 16.0751C52.422 15.9586 51.8439 15.509 51.5693 15.2988L52.6836 14.1829C52.6998 12.0965 52.6933 7.77837 52.5383 7.19615Z" fill="white"/>
<path fill-rule="evenodd" clip-rule="evenodd" d="M73.3702 5.35242H65.2312C65.1182 5.56267 64.9212 6.00257 65.0374 6.0802C65.0479 6.08717 65.0646 6.09765 65.0866 6.11145C65.3707 6.28979 66.5393 7.02326 66.5393 7.92391V14.0858L65.425 15.2017L66.5393 16.2692C66.6523 18.1452 66.8106 22.0817 66.5393 22.8192C66.268 23.5567 65.425 24.0969 65.0374 24.2748V25.0511H71.4808V24.5174C71.3839 24.5174 71.0642 24.43 70.5603 24.0807C69.9305 23.644 69.8821 23.1588 69.8821 22.237V16.2692H72.0622C73.2087 18.5657 75.5019 23.2365 75.5019 23.547C75.5019 23.8575 74.6298 24.3233 74.1938 24.5174V24.857H80.831V24.5174C80.2173 24.3071 78.835 23.6246 78.2149 22.5766C77.5947 21.5286 75.8249 17.7409 75.0174 15.978C75.7441 15.7193 77.401 14.8621 78.2149 13.5036C79.2322 11.8054 78.99 9.57355 77.7304 7.6328C76.4708 5.69205 74.5329 5.35242 73.3702 5.35242ZM73.1279 15.1047C72.0815 15.3376 70.3988 15.2017 69.6882 15.1047V7.82689C69.6882 6.95355 70.4634 6.5654 72.159 6.5654C73.8546 6.5654 75.3565 7.3417 75.6471 10.3013C75.9378 13.261 74.436 14.8136 73.1279 15.1047Z" fill="white"/>
</svg>
