<svg width="18" height="18" viewBox="0 0 18 18" fill="none" xmlns="http://www.w3.org/2000/svg">
<path d="M9 0C4.02891 0 0 4.02891 0 9C0 13.9711 4.02891 18 9 18C13.9711 18 18 13.9711 18 9C18 4.02891 13.9711 0 9 0ZM2.25 9C2.25 5.26992 5.27344 2.25 9 2.25C10.4801 2.25 11.8477 2.73164 12.9586 3.54023L3.54023 12.9586C2.73164 11.8477 2.25 10.4801 2.25 9ZM9 15.75C7.51992 15.75 6.15234 15.2684 5.04141 14.4598L14.4598 5.04141C15.2684 6.15586 15.75 7.51992 15.75 9C15.75 12.7301 12.7266 15.75 9 15.75Z" fill="url(#paint0_linear_413_3139)"/>
<defs>
<linearGradient id="paint0_linear_413_3139" x1="9" y1="0" x2="9" y2="18" gradientUnits="userSpaceOnUse">
<stop stop-color="#E93D25"/>
<stop offset="1" stop-color="#D32525"/>
</linearGradient>
</defs>
</svg>
