<svg width="24" height="24" viewBox="0 0 24 24" fill="none" xmlns="http://www.w3.org/2000/svg">
<g clip-path="url(#clip0_203_528)">
<rect width="24" height="24" fill="white"/>
<path fill-rule="evenodd" clip-rule="evenodd" d="M100 0H0V15.9043C6.90388e-05 12.1666 1.0163 8.38312 3.6446 4.51935C3.6521 4.50724 3.6635 4.49779 3.6767 4.49218C5.2076 3.8006 6.8477 3.29181 8.5619 3.00124C8.5931 2.99652 8.6243 3.01069 8.6405 3.03786C8.8523 3.40698 9.0944 3.88033 9.25819 4.26717C11.0651 3.9955 12.9002 3.9955 14.7449 4.26717C14.9087 3.8886 15.1424 3.40698 15.3533 3.03786C15.3608 3.02438 15.3724 3.01359 15.3866 3.00701C15.4007 3.00044 15.4165 2.99842 15.4319 3.00124C17.147 3.2927 18.7871 3.80149 20.3168 4.49218C20.3303 4.49779 20.3414 4.50724 20.348 4.52023C23.0585 8.44291 24.3971 12.8676 23.8967 17.9614C23.8946 17.983 23.8832 18.0027 23.8652 18.0157C21.8126 19.4993 19.8239 20.3996 17.8631 20.9967C17.8478 21.0013 17.8315 21.001 17.8164 20.996C17.8012 20.991 17.7881 20.9814 17.7788 20.9687C17.3258 20.3483 16.9142 19.6942 16.5536 19.0073C16.5329 18.9669 16.5518 18.9181 16.5944 18.9022C17.2481 18.6598 17.8697 18.3692 18.4676 18.0252C18.5147 17.998 18.5177 17.9316 18.4742 17.8997C18.3473 17.807 18.2216 17.7095 18.1013 17.6121C18.0788 17.594 18.0485 17.5905 18.023 17.6026C14.1413 19.367 9.88909 19.367 5.9615 17.6026C5.936 17.5914 5.9057 17.5952 5.8838 17.6129C5.7638 17.7104 5.6378 17.807 5.5121 17.8997C5.4686 17.9316 5.4722 17.998 5.5196 18.0252C6.1175 18.3627 6.7391 18.6598 7.3919 18.9034C7.4342 18.9193 7.4543 18.9669 7.4333 19.0073C7.0805 19.6951 6.6689 20.3491 6.2075 20.9695C6.1874 20.9946 6.1544 21.0062 6.1232 20.9967C4.1717 20.3996 2.18301 19.4993 0.130411 18.0157C0.113311 18.0027 0.101011 17.9821 0.0992107 17.9605C0.0343142 17.2768 1.26821e-05 16.5917 0 15.9051V100H100V0ZM8.0198 10.5173C9.2309 10.5173 10.1957 11.5952 10.1768 12.8977C10.1768 14.2094 9.2213 15.2778 8.0198 15.2778C6.8375 15.2778 5.8631 14.2094 5.8631 12.8977C5.8631 11.5857 6.8186 10.5173 8.0198 10.5173ZM15.9947 10.5173C17.2055 10.5173 18.1703 11.5952 18.1514 12.8977C18.1514 14.2094 17.2055 15.2778 15.9947 15.2778C14.8121 15.2778 13.8377 14.2094 13.8377 12.8977C13.8377 11.5857 14.7932 10.5173 15.9947 10.5173Z" fill="#5865F2"/>
</g>
<defs>
<clipPath id="clip0_203_528">
<rect width="24" height="24" fill="white"/>
</clipPath>
</defs>
</svg>
