<svg width="16" height="14" viewBox="0 0 16 14" fill="none" xmlns="http://www.w3.org/2000/svg">
<path d="M13.0909 8.4H16V0H13.0909M10.1818 0H3.63636C3.03273 0 2.51636 0.35 2.29818 0.854L0.101818 5.789C0.0363636 5.95 0 6.118 0 6.3V7.7C0 8.0713 0.153246 8.4274 0.426027 8.68995C0.698807 8.9525 1.06878 9.1 1.45455 9.1H6.04364L5.35273 12.299C5.33818 12.369 5.33091 12.439 5.33091 12.516C5.33091 12.81 5.45455 13.069 5.65091 13.258L6.42182 14L11.2073 9.387C11.4764 9.135 11.6364 8.785 11.6364 8.4V1.4C11.6364 1.0287 11.4831 0.672601 11.2103 0.41005C10.9376 0.1475 10.5676 0 10.1818 0Z" fill="#ACADB1" fill-opacity="0.2"/>
</svg>
