<svg width="14" height="14" viewBox="0 0 14 14" fill="none" xmlns="http://www.w3.org/2000/svg">
<path d="M6.99976 0C3.13335 0 -0.000244141 3.13359 -0.000244141 7C-0.000244141 10.8664 3.13335 14 6.99976 14C10.8662 14 13.9998 10.8664 13.9998 7C13.9998 3.13359 10.8662 0 6.99976 0ZM1.74976 7C1.74976 4.09883 4.10132 1.75 6.99976 1.75C8.15093 1.75 9.2146 2.12461 10.0787 2.75352L2.75327 10.0789C2.12437 9.21484 1.74976 8.15117 1.74976 7ZM6.99976 12.25C5.84858 12.25 4.78491 11.8754 3.92085 11.2465L11.2462 3.92109C11.8751 4.78789 12.2498 5.84883 12.2498 7C12.2498 9.90117 9.89819 12.25 6.99976 12.25Z" fill=""/>
</svg>
