<svg width="13" height="13" viewBox="0 0 13 13" fill="none" xmlns="http://www.w3.org/2000/svg">
<path d="M12.6668 2.74212L10.0162 5.39207L7.60738 2.98266L10.2574 0.332705C9.44882 0.000308994 8.55998 -0.085417 7.70279 0.0863223C6.84561 0.258062 6.0584 0.679587 5.4403 1.29782C4.82221 1.91605 4.40086 2.70334 4.22932 3.56055C4.05778 4.41776 4.14372 5.30657 4.47631 6.11504L0.19979 10.3908C0.136456 10.454 0.0862102 10.5291 0.0519281 10.6118C0.0176459 10.6944 0 10.7831 0 10.8725C0 10.962 0.0176459 11.0506 0.0519281 11.1333C0.0862102 11.216 0.136456 11.2911 0.19979 11.3543L1.64574 12.8002C1.70897 12.8635 1.78406 12.9138 1.86672 12.9481C1.94939 12.9824 2.038 13 2.1275 13C2.21699 13 2.3056 12.9824 2.38827 12.9481C2.47093 12.9138 2.54602 12.8635 2.60925 12.8002L6.88509 8.52377C7.69365 8.85662 8.58263 8.94274 9.44005 8.77129C10.2975 8.59983 11.085 8.17847 11.7033 7.56028C12.3213 6.94177 12.7425 6.15429 12.914 5.29695C13.0854 4.43961 12.9994 3.55071 12.6668 2.74212Z" fill=""/>
</svg>
