<svg width="16" height="14" viewBox="0 0 16 14" fill="none" xmlns="http://www.w3.org/2000/svg">
<path d="M16 6.3C16 5.9287 15.8468 5.5726 15.574 5.31005C15.3012 5.0475 14.9312 4.9 14.5455 4.9H9.94909L10.6473 1.701C10.6618 1.631 10.6691 1.554 10.6691 1.477C10.6691 1.19 10.5455 0.924 10.3491 0.735L9.57818 0L4.79273 4.606C4.52364 4.865 4.36364 5.215 4.36364 5.6V12.6C4.36364 12.9713 4.51688 13.3274 4.78966 13.5899C5.06244 13.8525 5.43241 14 5.81818 14H12.3636C12.9673 14 13.4836 13.65 13.7018 13.146L15.8982 8.211C15.9636 8.05 16 7.882 16 7.7V6.3ZM0 14H2.90909V5.6H0V14Z" fill="#ACADB1" fill-opacity="0.2"/>
</svg>
