<svg width="14" height="17" viewBox="0 0 14 17" fill="none" xmlns="http://www.w3.org/2000/svg">
<path d="M12.4444 6.8H13.2222C13.4285 6.8 13.6263 6.88955 13.7722 7.04896C13.9181 7.20837 14 7.42457 14 7.65V16.15C14 16.3754 13.9181 16.5916 13.7722 16.751C13.6263 16.9104 13.4285 17 13.2222 17H0.777778C0.571498 17 0.373667 16.9104 0.227806 16.751C0.0819442 16.5916 0 16.3754 0 16.15V7.65C0 7.42457 0.0819442 7.20837 0.227806 7.04896C0.373667 6.88955 0.571498 6.8 0.777778 6.8H1.55556V5.95C1.55556 4.37196 2.12916 2.85856 3.1502 1.74271C4.17123 0.626873 5.55604 0 7 0C8.44396 0 9.82877 0.626873 10.8498 1.74271C11.8708 2.85856 12.4444 4.37196 12.4444 5.95V6.8ZM10.8889 6.8V5.95C10.8889 4.82283 10.4792 3.74183 9.74986 2.9448C9.02055 2.14777 8.0314 1.7 7 1.7C5.9686 1.7 4.97945 2.14777 4.25014 2.9448C3.52083 3.74183 3.11111 4.82283 3.11111 5.95V6.8H10.8889ZM6.22222 10.2V13.6H7.77778V10.2H6.22222Z" fill="white"/>
</svg>
