<svg width="24" height="24" viewBox="0 0 24 24" fill="none" xmlns="http://www.w3.org/2000/svg">
<path d="M8.89204 21.8542C7.65574 21.8544 6.44713 21.488 5.41911 20.8012C4.39109 20.1145 3.58983 19.1383 3.11669 17.9961C2.64355 16.8539 2.51977 15.5971 2.76103 14.3845C3.00228 13.172 3.59772 12.0582 4.47204 11.1842L12.427 3.22916C13.271 2.38524 14.4156 1.91113 15.609 1.91113C16.8025 1.91113 17.9471 2.38524 18.791 3.22916C19.635 4.07308 20.1091 5.21768 20.1091 6.41116C20.1091 7.60464 19.635 8.74924 18.791 9.59316L11.896 16.4872C11.3721 16.9876 10.6755 17.2668 9.95104 17.2668C9.22655 17.2668 8.52994 16.9876 8.00604 16.4872C7.49091 15.9712 7.20175 15.2718 7.20212 14.5427C7.2025 13.8137 7.49238 13.1146 8.00804 12.5992L13.134 7.47216C13.2263 7.37665 13.3366 7.30047 13.4586 7.24806C13.5806 7.19565 13.7119 7.16806 13.8446 7.16691C13.9774 7.16576 14.1091 7.19106 14.232 7.24134C14.3549 7.29162 14.4665 7.36587 14.5604 7.45977C14.6543 7.55366 14.7286 7.66531 14.7789 7.78821C14.8291 7.9111 14.8544 8.04278 14.8533 8.17556C14.8521 8.30834 14.8245 8.43956 14.7721 8.56156C14.7197 8.68357 14.6435 8.79391 14.548 8.88616L9.42204 14.0132C9.28159 14.1538 9.2027 14.3444 9.2027 14.5432C9.2027 14.7419 9.28159 14.9325 9.42204 15.0732C9.56488 15.2094 9.75467 15.2854 9.95204 15.2854C10.1494 15.2854 10.3392 15.2094 10.482 15.0732L17.377 8.17916C17.845 7.70995 18.1078 7.07433 18.1078 6.41166C18.1078 5.74899 17.845 5.11337 17.377 4.64416C16.9008 4.18936 16.2676 3.93559 15.609 3.93559C14.9505 3.93559 14.3173 4.18936 13.841 4.64416L5.88604 12.5992C5.48384 12.9921 5.16361 13.4609 4.94391 13.9785C4.7242 14.4961 4.60938 15.0521 4.60611 15.6144C4.60283 16.1767 4.71117 16.734 4.92483 17.2541C5.13849 17.7742 5.45324 18.2468 5.85083 18.6444C6.24843 19.042 6.72097 19.3567 7.24107 19.5704C7.76118 19.784 8.31851 19.8924 8.88079 19.8891C9.44306 19.8858 9.99909 19.771 10.5167 19.5513C11.0343 19.3316 11.5031 19.0114 11.896 18.6092L18.084 12.4222C18.1763 12.3266 18.2866 12.2505 18.4086 12.1981C18.5306 12.1456 18.6619 12.1181 18.7946 12.1169C18.9274 12.1158 19.0591 12.1411 19.182 12.1913C19.3049 12.2416 19.4165 12.3159 19.5104 12.4098C19.6043 12.5037 19.6786 12.6153 19.7289 12.7382C19.7791 12.8611 19.8044 12.9928 19.8033 13.1256C19.8021 13.2583 19.7745 13.3896 19.7221 13.5116C19.6697 13.6336 19.5935 13.7439 19.498 13.8362L13.311 20.0222C12.7322 20.6048 12.0434 21.0668 11.2847 21.3812C10.526 21.6957 9.71235 21.8565 8.89104 21.8542H8.89204Z" fill="#ACADB1"/>
</svg>
