<svg width="24" height="24" viewBox="0 0 24 24" fill="none" xmlns="http://www.w3.org/2000/svg">
<g clip-path="url(#clip0_203_533)">
<rect width="24" height="24" rx="12" fill="white"/>
<path fill-rule="evenodd" clip-rule="evenodd" d="M100 0H0V11.9057C2.18536e-05 11.3241 0.000289218 10.8941 0.00102505 10.8814L0.00105369 10.8809L6.42307 13.5432C6.59778 13.4275 6.78399 13.3273 6.9827 13.2457C7.43348 13.0587 7.90888 12.975 8.38264 12.9967L11.3073 8.71841C11.3062 8.69942 11.3062 8.67914 11.3062 8.65891C11.3062 6.13401 13.3427 4.08 15.8458 4.08C18.3501 4.08 20.3854 6.13401 20.3854 8.65891C20.3854 11.1836 18.3501 13.2395 15.8458 13.2395C15.812 13.2395 15.7771 13.2384 15.7433 13.2374L11.5586 16.2489C11.5709 16.7138 11.4858 17.1797 11.3032 17.6239C10.6015 19.3234 8.65646 20.1323 6.96957 19.4226C5.93854 18.9897 5.2397 18.0899 5.01175 17.064L0.00104791 15.12C0.00104791 15.12 4.38491e-05 13.3229 0 12.069V100H100V0ZM10.6045 17.3285C10.0614 18.6415 8.56299 19.2645 7.26052 18.718C6.65965 18.4659 6.20599 18.0041 5.94429 17.4535L7.42209 18.0702C8.38264 18.4732 9.48466 18.0145 9.88394 17.0475C10.2845 16.0795 9.83008 14.9678 8.87005 14.5649L7.34238 13.9275C7.93186 13.7023 8.60198 13.694 9.22809 13.9564C9.85932 14.2209 10.3491 14.7189 10.6086 15.3553C10.8682 15.9916 10.8672 16.6942 10.6045 17.3285ZM12.8215 8.65891C12.8215 10.3416 14.1788 11.7105 15.8458 11.7105C17.514 11.7105 18.8712 10.3416 18.8712 8.65891C18.8712 6.97754 17.514 5.60826 15.8458 5.60826C14.1788 5.60826 12.8215 6.97754 12.8215 8.65891ZM13.5796 8.65426C13.5796 7.3884 14.5973 6.3617 15.851 6.3617C17.1057 6.3617 18.1233 7.3884 18.1233 8.65426C18.1233 9.92022 17.1057 10.946 15.851 10.946C14.5973 10.946 13.5796 9.92022 13.5796 8.65426Z" fill="#292E3E"/>
</g>
<defs>
<clipPath id="clip0_203_533">
<rect width="24" height="24" rx="12" fill="white"/>
</clipPath>
</defs>
</svg>
