<svg width="25" height="24" viewBox="0 0 25 24" fill="none" xmlns="http://www.w3.org/2000/svg">
<g clip-path="url(#clip0_203_546)">
<rect width="24" height="24" transform="translate(0.5)" fill="white"/>
<path d="M0.5 0H100.5V100H0.5V0Z" fill="#9146FF"/>
<path d="M7.51346 1.84203L6.45799 2.91L4.61092 14.9247L10.1521 17.8616L10.9437 18.9296L16.2211 17.0606L22.0261 12.5217L22.29 8.24986L22.0261 2.10902L21.2345 1.84203H7.51346Z" fill="white"/>
<path d="M6.875 1L2.5 5.10714V19.8929H7.75V24L12.125 19.8929H15.625L23.5 12.5V1H6.875ZM21.75 11.6786L18.25 14.9643H14.75L11.6875 17.8393V14.9643H7.75V2.64286H21.75V11.6786Z" fill="black"/>
<path d="M19.1255 5.51786H17.3755V10.4464H19.1255V5.51786Z" fill="black"/>
<path d="M14.3141 5.51786H12.5641V10.4464H14.3141V5.51786Z" fill="black"/>
</g>
<defs>
<clipPath id="clip0_203_546">
<rect width="24" height="24" fill="white" transform="translate(0.5)"/>
</clipPath>
</defs>
</svg>
